<svg xmlns="http://www.w3.org/2000/svg" width="400" height="120" viewBox="0 0 400 120">
  <defs>
    <linearGradient id="bagGrad" x1="0%" y1="0%" x2="100%" y2="100%">
      <stop offset="0%" style="stop-color:#FF8C5A"/>
      <stop offset="100%" style="stop-color:#FF6B35"/>
    </linearGradient>
  </defs>
  
  <!-- Shopping Bag Icon -->
  <g transform="translate(10, 10)">
    <!-- Bag Body -->
    <path d="M10 35 L10 85 Q10 95 20 95 L70 95 Q80 95 80 85 L80 35 Z" fill="url(#bagGrad)" rx="5"/>
    
    <!-- Bag Handle -->
    <path d="M25 35 L25 20 Q25 5 45 5 Q65 5 65 20 L65 35" fill="none" stroke="#FF6B35" stroke-width="8" stroke-linecap="round"/>
    
    <!-- Items in bag (4 circles) -->
    <circle cx="30" cy="55" r="8" fill="white" opacity="0.9"/>
    <circle cx="50" cy="55" r="8" fill="white" opacity="0.9"/>
    <circle cx="70" cy="55" r="8" fill="white" opacity="0.9"/>
    <circle cx="40" cy="75" r="8" fill="white" opacity="0.9"/>
    
    <!-- Checkmark -->
    <path d="M35 65 L45 75 L60 55" fill="none" stroke="#FF6B35" stroke-width="4" stroke-linecap="round" stroke-linejoin="round"/>
  </g>
  
  <!-- Text: PedeFácil -->
  <text x="110" y="75" font-family="Inter, -apple-system, BlinkMacSystemFont, 'Segoe UI', sans-serif" font-size="52" font-weight="700" fill="#FFFFFF">
    Pede<tspan fill="#FF6B35">Fácil</tspan>
  </text>
  
  <!-- Tagline -->
  <text x="110" y="100" font-family="Inter, -apple-system, BlinkMacSystemFont, 'Segoe UI', sans-serif" font-size="16" fill="#FFFFFF">
    Seu cardápio, seu controle
  </text>
</svg>
