<svg xmlns="http://www.w3.org/2000/svg" width="200" height="280" viewBox="0 0 200 280">
  <defs>
    <linearGradient id="bagGrad" x1="0%" y1="0%" x2="100%" y2="100%">
      <stop offset="0%" style="stop-color:#FF8C5A"/>
      <stop offset="100%" style="stop-color:#FF6B35"/>
    </linearGradient>
  </defs>
  
  <!-- Shopping Bag (centered) -->
  <g transform="translate(30, 10)">
    <!-- Bag Body -->
    <path d="M10 45 L10 115 Q10 125 20 125 L100 125 Q110 125 110 115 L110 45 Z" fill="url(#bagGrad)" rx="5"/>
    
    <!-- Bag Handle -->
    <path d="M30 45 L30 28 Q30 8 60 8 Q90 8 90 28 L90 45" fill="none" stroke="#FF6B35" stroke-width="10" stroke-linecap="round"/>
    
    <!-- Items in bag -->
    <circle cx="40" cy="70" r="10" fill="white" opacity="0.9"/>
    <circle cx="60" cy="70" r="10" fill="white" opacity="0.9"/>
    <circle cx="80" cy="70" r="10" fill="white" opacity="0.9"/>
    <circle cx="50" cy="95" r="10" fill="white" opacity="0.9"/>
    
    <!-- Checkmark -->
    <path d="M45 82 L55 92 L75 68" fill="none" stroke="white" stroke-width="5" stroke-linecap="round" stroke-linejoin="round"/>
  </g>
  
  <!-- Text: PedeFácil (centered) -->
  <text x="100" y="180" text-anchor="middle" font-family="Inter, -apple-system, BlinkMacSystemFont, 'Segoe UI', sans-serif" font-size="42" font-weight="700" fill="#FFFFFF">
    Pede<tspan fill="#FF6B35">Fácil</tspan>
  </text>
  
  <!-- Tagline (centered) -->
  <text x="100" y="210" text-anchor="middle" font-family="Inter, -apple-system, BlinkMacSystemFont, 'Segoe UI', sans-serif" font-size="14" fill="#FFFFFF">
    Seu cardápio, seu controle
  </text>
</svg>
